<svg width="44" height="94" viewBox="0 0 44 94" fill="none" xmlns="http://www.w3.org/2000/svg">
<g filter="url(#filter0_di_580_79)">
<mask id="path-1-inside-1_580_79" fill="white">
<path d="M33.6904 57.9515L5.07943 55.5013L8.71597 15.0673C9.42628 7.16955 16.4069 1.31566 24.3076 1.99227V1.99227C32.2083 2.66887 38.0373 9.61976 37.327 17.5175L33.6904 57.9515Z"/>
</mask>
<path d="M33.6904 57.9515L5.07943 55.5013L33.6904 57.9515ZM4.73056 14.726C5.63875 4.62799 14.5641 -2.85676 24.6659 -1.99165C34.7677 -1.12655 42.2206 7.76081 41.3124 17.8588L33.3416 17.1762C33.854 11.4787 29.6489 6.46429 23.9493 5.97619C18.2497 5.48808 13.2138 9.71112 12.7014 15.4086L4.73056 14.726ZM24.6659 -1.99165C34.7677 -1.12655 42.2206 7.76081 41.3124 17.8588L37.6758 58.2928L29.705 57.6102L33.3416 17.1762C33.854 11.4787 29.6489 6.46429 23.9493 5.97619L24.6659 -1.99165ZM1.09402 55.16L4.73056 14.726C5.63875 4.62799 14.5641 -2.85676 24.6659 -1.99165L23.9493 5.97619C18.2497 5.48808 13.2138 9.71112 12.7014 15.4086L9.06484 55.8426L1.09402 55.16Z" fill="url(#paint0_linear_580_79)" mask="url(#path-1-inside-1_580_79)"/>
</g>
<g filter="url(#filter1_di_580_79)">
<mask id="path-3-inside-2_580_79" fill="white">
<path d="M8.19141 21.5836L40.1462 24.5564L35.225 74.0861C34.3488 82.9049 26.4852 89.3884 17.6611 88.5675V88.5675C8.83703 87.7465 2.39401 79.932 3.27023 71.1133L8.19141 21.5836Z"/>
</mask>
<path d="M8.19141 21.5836L40.1462 24.5564L8.19141 21.5836ZM39.2078 74.4566C38.1132 85.4737 28.2893 93.5734 17.2656 92.5479C6.2419 91.5223 -1.80721 81.7598 -0.712575 70.7427L7.25303 71.4838C6.59523 78.1042 11.4322 83.9708 18.0566 84.5871C24.681 85.2033 30.5844 80.336 31.2422 73.7156L39.2078 74.4566ZM17.2656 92.5479C6.2419 91.5223 -1.80721 81.7598 -0.712575 70.7427L4.2086 21.2131L12.1742 21.9541L7.25303 71.4838C6.59523 78.1042 11.4322 83.9708 18.0566 84.5871L17.2656 92.5479ZM44.129 24.9269L39.2078 74.4566C38.1132 85.4737 28.2893 93.5734 17.2656 92.5479L18.0566 84.5871C24.681 85.2033 30.5844 80.336 31.2422 73.7156L36.1634 24.1859L44.129 24.9269Z" fill="url(#paint1_linear_580_79)" mask="url(#path-3-inside-2_580_79)"/>
</g>
<defs>
<filter id="filter0_di_580_79" x="2.0791" y="0.939056" width="38.3066" height="62.0125" filterUnits="userSpaceOnUse" color-interpolation-filters="sRGB">
<feFlood flood-opacity="0" result="BackgroundImageFix"/>
<feColorMatrix in="SourceAlpha" type="matrix" values="0 0 0 0 0 0 0 0 0 0 0 0 0 0 0 0 0 0 127 0" result="hardAlpha"/>
<feOffset dy="2"/>
<feGaussianBlur stdDeviation="1.5"/>
<feColorMatrix type="matrix" values="0 0 0 0 0 0 0 0 0 0 0 0 0 0 0 0 0 0 0.4 0"/>
<feBlend mode="normal" in2="BackgroundImageFix" result="effect1_dropShadow_580_79"/>
<feBlend mode="normal" in="SourceGraphic" in2="effect1_dropShadow_580_79" result="shape"/>
<feColorMatrix in="SourceAlpha" type="matrix" values="0 0 0 0 0 0 0 0 0 0 0 0 0 0 0 0 0 0 127 0" result="hardAlpha"/>
<feOffset dx="-1" dy="-1"/>
<feGaussianBlur stdDeviation="0.5"/>
<feComposite in2="hardAlpha" operator="arithmetic" k2="-1" k3="1"/>
<feColorMatrix type="matrix" values="0 0 0 0 0.453056 0 0 0 0 0.357126 0 0 0 0 0.222823 0 0 0 0.5 0"/>
<feBlend mode="normal" in2="shape" result="effect2_innerShadow_580_79"/>
</filter>
<filter id="filter1_di_580_79" x="0.19043" y="20.5836" width="42.9561" height="73.054" filterUnits="userSpaceOnUse" color-interpolation-filters="sRGB">
<feFlood flood-opacity="0" result="BackgroundImageFix"/>
<feColorMatrix in="SourceAlpha" type="matrix" values="0 0 0 0 0 0 0 0 0 0 0 0 0 0 0 0 0 0 127 0" result="hardAlpha"/>
<feOffset dy="2"/>
<feGaussianBlur stdDeviation="1.5"/>
<feColorMatrix type="matrix" values="0 0 0 0 0 0 0 0 0 0 0 0 0 0 0 0 0 0 0.4 0"/>
<feBlend mode="normal" in2="BackgroundImageFix" result="effect1_dropShadow_580_79"/>
<feBlend mode="normal" in="SourceGraphic" in2="effect1_dropShadow_580_79" result="shape"/>
<feColorMatrix in="SourceAlpha" type="matrix" values="0 0 0 0 0 0 0 0 0 0 0 0 0 0 0 0 0 0 127 0" result="hardAlpha"/>
<feOffset dx="-1" dy="-1"/>
<feGaussianBlur stdDeviation="0.5"/>
<feComposite in2="hardAlpha" operator="arithmetic" k2="-1" k3="1"/>
<feColorMatrix type="matrix" values="0 0 0 0 0.453056 0 0 0 0 0.357126 0 0 0 0 0.222823 0 0 0 0.5 0"/>
<feBlend mode="normal" in2="shape" result="effect2_innerShadow_580_79"/>
</filter>
<linearGradient id="paint0_linear_580_79" x1="29.9459" y1="57.9389" x2="18.1038" y2="16.5877" gradientUnits="userSpaceOnUse">
<stop stop-color="#BDA269"/>
<stop offset="1" stop-color="#D8C395"/>
</linearGradient>
<linearGradient id="paint1_linear_580_79" x1="12.3792" y1="21.604" x2="15.9888" y2="88.6575" gradientUnits="userSpaceOnUse">
<stop stop-color="#D8C395"/>
<stop offset="1" stop-color="#BDA269"/>
</linearGradient>
</defs>
</svg>
