<svg width="196" height="117" viewBox="0 0 196 117" fill="none" xmlns="http://www.w3.org/2000/svg">
<g id="Group 9">
<path id="Vector" d="M36.4809 67.1436C36.3256 68.2683 36.2108 69.2029 36.1512 69.9617C36.0128 72.0478 35.6932 73.7728 35.2075 75.1655C34.7215 76.5437 33.9714 77.8099 32.9419 78.9353C31.6698 80.3564 29.9562 81.5229 27.801 82.4348C25.6458 83.3467 23.4829 83.8215 21.327 83.8592C18.9672 83.9004 17.003 83.2352 15.4488 81.8489C13.8946 80.4626 13.0913 78.6844 13.0532 76.4994C12.9952 73.1781 14.7228 70.3065 18.2364 67.9138C19.3886 67.136 20.718 66.5008 22.2103 66.0084C23.7028 65.5307 25.1117 65.273 26.4227 65.2501C27.894 65.2244 29.1689 65.6393 30.2473 66.4802C31.3257 67.321 31.986 68.4169 32.2133 69.7535C33.1927 69.0953 34.1283 68.4378 35.0346 67.7663C35.1525 67.0065 35.4127 66.0549 35.845 64.9399C36.2624 63.8106 36.7123 62.8702 37.1798 62.1043C37.9997 60.662 39.2115 59.1255 40.8291 57.4652C42.2317 56.0128 43.3266 55.2942 44.1423 55.28C44.3754 55.2759 44.5811 55.3743 44.7595 55.5752C44.9378 55.7761 45.0295 56.0222 45.0344 56.299C45.0756 58.6588 42.2245 62.2786 36.4666 67.1585L36.4809 67.1436ZM34.9433 68.3799C33.9075 69.1411 33.0293 69.7539 32.2659 70.2626C32.2929 71.8067 31.8652 73.1839 30.9678 74.3652C30.0983 75.4733 29.4231 76.0242 28.9424 76.0326C28.7967 76.0351 28.7083 75.9784 28.706 75.8473C28.7042 75.7453 28.9342 75.5664 29.3812 75.2964C30.1157 74.8027 30.7013 74.1222 31.1381 73.2694C31.5749 72.4167 31.8211 71.4944 31.8481 70.5322C28.0272 72.8574 24.6238 74.0534 21.6231 74.1058C20.8656 74.119 20.2088 74.0576 19.653 73.9362C19.0969 73.8002 18.8319 73.6445 18.8283 73.4406C18.826 73.3095 18.9124 73.2497 19.0872 73.2466C19.1601 73.2454 19.3213 73.3008 19.5413 73.3844C19.9814 73.5516 20.5802 73.6286 21.3376 73.6153C24.6152 73.5581 28.0914 72.3609 31.7952 70.0085C31.6711 68.743 31.0993 67.7039 30.0651 66.8913C29.0309 66.0788 27.771 65.6928 26.2706 65.719C22.9203 65.7775 19.9825 66.9362 17.4722 69.2094C14.9619 71.4826 13.7248 74.0688 13.7756 76.9822C13.8097 78.9341 14.5366 80.5097 15.9707 81.6941C17.4048 82.8785 19.2652 83.4435 21.5377 83.4038C23.14 83.3758 24.6931 83.0281 26.2117 82.3751C27.73 81.7074 28.968 80.8407 29.94 79.76C31.255 78.2945 32.3047 76.6588 33.0897 74.8819C33.8747 73.1051 34.478 70.938 34.9144 68.395L34.9433 68.3799ZM36.5867 66.5298C36.7161 66.4255 36.8451 66.3067 37.0031 66.1728C37.1464 66.0392 37.319 65.905 37.491 65.7417C39.5862 63.8983 41.318 62.1049 42.6573 60.3622C43.9963 58.6048 44.6581 57.2818 44.6421 56.3641C44.6345 55.9271 44.427 55.7267 44.0191 55.7338C43.4801 55.7432 42.8021 56.1339 41.9847 56.8913C41.1528 57.649 40.3112 58.6837 39.4447 59.9665C38.0106 62.119 37.0579 64.3067 36.5867 66.5298Z" fill="#373230"/>
<path id="Vector_2" d="M41.0341 80.9362L40.1304 81.7534C39.0843 82.7625 38.1898 83.2736 37.4469 83.2865C36.937 83.2954 36.511 83.0989 36.154 82.6825C35.7971 82.2662 35.6277 81.7446 35.6165 81.1036C35.5951 79.88 36.0241 78.5757 36.9174 77.1613C37.8107 75.7468 39.0119 74.4436 40.5502 73.251L41.973 72.1188C42.2749 71.8803 42.7081 71.6542 43.2578 71.426C43.8075 71.1979 44.2282 71.0885 44.5049 71.0837C44.7817 71.0789 45.0319 71.2202 45.2555 71.5077C45.4791 71.7953 45.5866 72.114 45.593 72.4781C45.6027 73.0317 45.413 73.851 45.0234 74.9069C44.6338 75.9629 44.2123 76.8591 43.7295 77.5815L43.5442 77.8179L43.5025 77.9352L43.431 78.0093L43.4317 78.053L43.4762 78.0959C43.5496 78.1238 43.6226 78.1371 43.6663 78.1363C44.2053 78.1269 44.9122 77.7211 45.8162 76.9185C46.1178 76.6655 46.7759 75.9692 47.8057 74.8584C47.9059 74.7546 48.0485 74.5773 48.2478 74.3115C48.3777 74.2364 48.4779 74.1326 48.5484 74.0002C48.6481 73.8674 48.7199 73.8078 48.7782 73.8068C48.8801 73.805 48.9249 73.8625 48.9271 73.9936C48.9297 74.1393 48.531 74.6708 47.7162 75.5739C46.9014 76.477 46.2568 77.1148 45.7822 77.4728C44.8332 78.2034 43.9944 78.5677 43.2807 78.5802L43.0476 78.5842L42.3777 79.4411L40.9906 80.9516L41.0341 80.9362ZM39.6775 75.8454L38.1151 78.1603C37.0076 79.8262 36.4488 81.2057 36.4674 82.2691C36.4704 82.4439 36.5606 82.6026 36.7229 82.7163C36.8854 82.8446 37.0904 82.8993 37.3234 82.8953C38.0809 82.882 38.9179 82.4157 39.8196 81.482L40.8353 80.4006L41.3199 79.7801L42.4003 78.2313L42.4414 78.0848C42.4402 78.012 42.4389 77.9392 42.3944 77.8962C42.364 77.8239 42.3479 77.7367 42.3462 77.6348C42.3385 77.1978 42.4766 76.7582 42.7598 76.287C43.0432 75.8303 43.3159 75.5924 43.5636 75.5881C43.6073 75.5873 43.651 75.5866 43.6809 75.6298L43.8265 75.6272C44.0596 75.6232 44.3441 75.2248 44.6797 74.4175C45.0153 73.6102 45.1933 72.9514 45.1844 72.4416C45.18 72.1939 45.0886 71.9624 44.925 71.7758C44.7615 71.5892 44.5558 71.4908 44.3227 71.4949C43.5798 71.5079 42.6449 72.209 41.5034 73.5987L39.6775 75.8454Z" fill="#373230"/>
<path id="Vector_3" d="M52.1981 79.473L53.7963 77.5363C53.9425 77.5629 54.0311 77.6342 54.0334 77.7653C54.0375 77.9983 53.2812 78.915 51.7651 80.5443C50.9643 81.418 50.2756 82.0274 49.6839 82.3583C49.0923 82.6892 48.425 82.8611 47.6966 82.8738C46.9683 82.8866 46.4102 82.634 45.9929 82.1022C45.561 81.5706 45.3444 80.8458 45.3279 79.8989C45.3167 79.258 45.4645 78.5414 45.7853 77.7198C46.1061 76.8982 46.4733 76.2361 46.8869 75.7189L47.7436 74.7131L48.7884 73.6311L49.8795 72.6941C51.5024 71.3398 52.8457 70.6606 53.8799 70.6426C54.6374 70.6293 55.023 71.016 55.0368 71.8026C55.0469 72.3853 54.868 72.9859 54.4997 73.5897C54.1314 74.1936 53.7577 74.4915 53.379 74.4981C53.277 74.4999 53.174 74.4434 53.0846 74.3284C52.9951 74.2134 52.9494 74.0976 52.9471 73.9665C52.9369 73.3839 53.3193 72.7506 54.0945 72.0814C54.3961 71.8284 54.5379 71.6074 54.5349 71.4326C54.5295 71.1267 54.3376 70.9843 53.9589 70.9909C53.2742 71.0028 52.4521 71.4835 51.5072 72.4471L50.1889 73.7233L49.1052 75.0827C48.306 76.0438 47.6399 77.1192 47.1072 78.3233C46.5745 79.5275 46.3002 80.5085 46.3134 81.266C46.32 81.6447 46.4565 81.9484 46.7082 82.1771C46.9599 82.4058 47.3115 82.5163 47.7485 82.5087C49.045 82.486 50.5284 81.4839 52.1986 79.5021L52.1981 79.473Z" fill="#373230"/>
<path id="Vector_4" d="M56.0375 76.4339L54.2478 79.0879C53.3819 80.3999 52.9468 81.3546 52.9575 81.9665C52.9636 82.3161 53.1708 82.5019 53.5787 82.4948C54.3362 82.4815 55.3449 81.8374 56.5907 80.577C58.0066 79.0515 58.8633 78.0457 59.1317 77.5601C59.1601 77.5159 59.2033 77.486 59.2761 77.4848C59.3781 77.483 59.4228 77.5405 59.4243 77.6279C59.4268 77.7736 59.0999 78.2455 58.4577 79.0145C57.8154 79.7834 57.1861 80.4647 56.5847 81.0726C55.3378 82.26 54.27 82.8615 53.3814 82.877C52.5365 82.8918 52.1208 82.4473 52.1047 81.5296C52.088 80.5682 52.5614 79.3068 53.5255 77.7746L54.2345 76.6548C54.3771 76.4774 54.8893 75.7691 55.7565 74.5299L57.6931 71.9461C58.0921 71.4292 58.3638 71.133 58.5228 71.0574C58.6817 70.9818 59.016 70.9322 59.555 70.9228C59.5841 70.9223 59.672 70.9499 59.8185 70.991L56.0229 76.4341L56.0375 76.4339ZM60.2388 68.3609L60.2376 68.288C60.2332 68.0404 60.3457 67.8053 60.5755 67.6119C60.8052 67.4184 61.0511 67.3121 61.3279 67.3073C61.8377 67.2984 62.0894 67.5271 62.0973 67.9787C62.1016 68.2264 61.9891 68.4615 61.7594 68.6549C61.5296 68.8483 61.2692 68.9549 60.9633 68.9602C60.4826 68.9686 60.2314 68.769 60.2243 68.3611L60.2388 68.3609Z" fill="#373230"/>
<path id="Vector_5" d="M63.8386 78.4396L63.8373 78.3668C63.4388 78.9129 63.1107 79.312 62.8674 79.564L61.4816 81.1473C60.4368 82.2292 59.5721 82.7835 58.8875 82.7954C58.5379 82.8015 58.2289 82.6321 57.9895 82.2719C57.7358 81.9267 57.6116 81.4917 57.6027 80.9819C57.5717 79.2047 58.2133 77.5615 59.5418 76.0375L60.4701 74.9576L61.932 73.5623L63.4422 72.4286C64.8507 71.3111 66.1232 70.7498 67.2594 70.7299C67.8421 70.7198 68.139 71.0351 68.15 71.6615L68.1561 72.0111C68.3851 71.774 68.5277 71.5966 68.5982 71.4643C68.8265 71.1834 69.0128 71.0053 69.1574 70.9445C69.3021 70.8837 69.6801 70.8334 70.2627 70.8232C70.2929 70.881 70.3082 70.9244 70.309 70.9681C70.3103 71.041 70.2538 71.1439 70.1249 71.2773L68.5597 73.4321L65.9586 77.1786L64.5114 79.4187C63.777 80.7575 63.4125 81.5799 63.4184 81.9149C63.4227 82.1625 63.5707 82.2911 63.8766 82.2858C64.4592 82.2756 65.2365 81.7229 66.2084 80.6422L67.9669 78.7027L71.428 74.1397L73.7335 70.9812C73.8337 70.8775 73.9203 70.8322 73.9931 70.831C74.0368 70.8302 74.0667 70.8734 74.068 70.9462C74.0711 71.121 72.435 73.3936 69.1594 77.7347L67.4472 79.8192L66.1304 81.1827C65.2295 82.1601 64.4222 82.6551 63.7229 82.6673C63.4753 82.6716 63.2548 82.5589 63.0756 82.3143C62.8965 82.0697 62.8043 81.7945 62.7984 81.4594C62.7852 80.702 63.1318 79.6905 63.8529 78.4248L63.8386 78.4396ZM61.4759 75.8143L60.3649 77.2762C58.9706 79.2094 58.2968 80.6783 58.3146 81.698C58.3182 81.9019 58.3795 82.0757 58.5129 82.2045C58.6465 82.3479 58.8078 82.4034 59.0117 82.3998C59.5944 82.3897 60.4005 81.8219 61.4152 80.6822L62.9154 78.9803L65.6643 75.3477C67.1028 73.4429 67.8243 72.2063 67.8139 71.6091C67.8114 71.4634 67.7505 71.3188 67.6177 71.2191C67.4845 71.1049 67.3378 71.0491 67.163 71.0522C66.3473 71.0664 65.2665 71.7556 63.9208 73.1342L62.647 74.4533L61.4905 75.814L61.4759 75.8143Z" fill="#373230"/>
<path id="Vector_6" d="M73.0942 71.0796L81.6798 58.7335C82.078 58.1729 82.3635 57.8327 82.5508 57.7129C82.7382 57.5931 83.1013 57.5284 83.6403 57.519C83.7131 57.5178 83.7573 57.5461 83.7581 57.5898C83.7588 57.6335 83.5743 57.9136 83.204 58.4009L82.977 58.7546L74.2132 71.7449C70.4489 77.304 68.5825 80.5714 68.5998 81.562C68.6056 81.897 68.7541 82.0547 69.06 82.0494C70.0797 82.0316 71.7721 80.4866 74.1667 77.4286L75.849 75.3009C75.9487 75.168 76.0205 75.1085 76.0788 75.1075C76.1516 75.1062 76.1963 75.1637 76.1986 75.2948C76.2012 75.4405 76.1452 75.5726 76.0595 75.6761L74.7494 77.4184C72.1853 80.7854 70.2772 82.4944 69.0099 82.5165C68.6748 82.5224 68.3958 82.3961 68.1435 82.1382C67.8913 81.8803 67.7689 81.5473 67.7623 81.1686C67.7356 79.6391 69.5131 76.2858 73.109 71.0939L73.0942 71.0796Z" fill="#373230"/>
<path id="Vector_7" d="M83.629 83.5729L87.1856 77.7989C84.8467 80.7103 83.1964 82.1671 82.235 82.1839C81.9582 82.1887 81.7229 82.0617 81.5437 81.8171C81.3646 81.5725 81.2714 81.239 81.2642 80.8311C81.2381 79.3307 82.136 77.3479 83.9435 74.8829L86.548 71.3258C86.9748 70.7355 87.2757 70.4388 87.4796 70.4352L88.5854 70.3431C88.7311 70.3405 88.819 70.3681 88.8198 70.4118L88.7058 70.5596L84.213 76.9619C83.587 77.8326 83.0487 78.7162 82.5836 79.6132C82.1184 80.5102 81.8811 81.1118 81.8865 81.4177C81.8913 81.6944 82.025 81.8378 82.2726 81.8335C82.8261 81.8238 83.7472 81.1666 85.0065 79.8478C86.2657 78.5289 87.5917 76.8592 88.9696 74.8244L91.6411 70.9309C91.8111 70.6511 91.9974 70.473 92.1998 70.382C92.4024 70.3056 92.7804 70.2553 93.334 70.2456C93.4359 70.2438 93.4801 70.2722 93.4809 70.3159C93.4814 70.3451 93.4385 70.3895 93.3669 70.4636L93.1405 70.8464L92.5871 71.7012L90.1288 75.285C88.9362 77.0835 87.3354 79.7051 85.3116 83.1356C85.9648 82.993 86.6484 82.9228 87.3331 82.9109C88.076 82.8979 88.4417 82.9789 88.4447 83.1537C88.4465 83.2557 88.3745 83.3007 88.2142 83.3035L88.0248 83.3068C87.8495 83.2807 87.6016 83.2705 87.2957 83.2758C86.8442 83.2837 86.0736 83.3846 85.0133 83.5779C83.4161 86.4035 82.2122 88.3916 81.4163 89.5421C80.6204 90.6926 79.7069 91.7868 78.6608 92.7959C77.457 93.9535 76.2065 94.937 74.8796 95.7179C73.5526 96.4987 72.4959 96.896 71.6801 96.9103C71.2431 96.9179 70.8912 96.7929 70.6244 96.5353C70.3577 96.2777 70.2204 95.9303 70.2128 95.4933C70.1805 93.6433 71.5705 91.4625 74.3823 88.9363C77.1945 86.4247 80.2667 84.6225 83.5988 83.5152L83.629 83.5729ZM83.3038 84.1469C80.5953 85.083 77.8137 86.8364 74.9149 89.3933C72.0161 91.9502 70.5942 93.9713 70.6194 95.4134C70.6255 95.763 70.7183 96.0674 70.8971 96.2974C71.0763 96.542 71.3114 96.6544 71.5881 96.6496C72.9283 96.6262 74.7856 95.3407 77.1597 92.7784C78.3325 91.5193 79.2887 90.3661 80.0136 89.3189C80.7384 88.2717 81.8449 86.5475 83.289 84.1326L83.3038 84.1469Z" fill="#373230"/>
<path id="Vector_8" d="M105.701 77.5482L105.627 77.5058C105.392 77.3788 105.268 76.9729 105.256 76.2883C105.22 74.1761 106.118 72.237 107.967 70.4561C109.815 68.6753 111.869 67.7652 114.127 67.7258C115.263 67.706 116.201 68.0393 116.927 68.726C117.653 69.4128 118.018 70.3098 118.038 71.4315C118.084 74.0535 116.888 76.4932 114.436 78.7655C111.984 81.0377 109.294 82.2066 106.337 82.2582C104.56 82.2893 103.048 81.6745 101.802 80.4285C100.557 79.1826 99.9176 77.6346 99.8851 75.77C99.8337 72.8275 101.02 69.8343 103.459 66.79C101.598 66.2396 100.216 65.4915 99.3103 64.5456C98.2557 63.3983 97.7089 62.1255 97.6845 60.7271C97.6512 58.8189 98.4967 57.1721 100.221 55.7869C101.946 54.4016 104.017 53.6806 106.435 53.6384C107.979 53.6115 109.471 53.9351 110.911 54.624C111.396 54.8632 111.883 55.219 112.372 55.6913C112.861 56.1491 113.1 56.4801 113.074 56.6845C113.047 56.8161 113.005 56.8752 112.932 56.8764C112.439 56.171 111.92 55.6555 111.374 55.3008C109.96 54.3929 108.363 53.9399 106.586 53.9709C104.328 54.0103 102.389 54.7436 100.781 56.1414C99.1737 57.5537 98.3723 59.2288 98.4059 61.1517C98.4273 62.3753 98.8982 63.4745 99.8329 64.4345C100.737 65.3075 102.045 65.9695 103.758 66.4205C105.432 64.6573 106.88 63.306 108.132 62.3662C109.368 61.412 110.939 60.4375 112.83 59.4136C116.93 57.2292 120.146 56.1239 122.491 56.083C123.074 56.0728 123.543 56.2104 123.912 56.4953C124.267 56.7806 124.463 57.1706 124.471 57.6513C124.494 58.9477 123.585 60.3333 121.731 61.7937C119.877 63.254 117.553 64.504 114.773 65.5142C111.978 66.5247 109.335 67.0517 106.815 67.0957C106.437 67.1023 106.087 67.1084 105.78 67.07C102.527 71.0319 100.912 74.4698 100.962 77.3687C100.985 78.6942 101.543 79.7628 102.621 80.6037C103.7 81.4446 105.062 81.8433 106.679 81.8151C109.141 81.7722 111.553 80.5498 113.915 78.1626C116.278 75.7753 117.431 73.3801 117.389 70.9911C117.374 70.1025 117.07 69.3938 116.478 68.8505C115.886 68.3217 115.109 68.0584 114.147 68.0751C112.035 68.112 110.083 68.9912 108.292 70.6982C106.485 72.4054 105.614 74.242 105.648 76.194C105.655 76.5728 105.704 76.8779 105.81 77.1092C105.855 77.2104 105.885 77.2681 105.886 77.2973C105.887 77.3701 105.83 77.444 105.701 77.5337L105.701 77.5482ZM106.153 66.7284C107.391 66.7068 108.25 66.6626 108.701 66.6111C110.825 66.3991 113.116 65.7763 115.546 64.743C117.976 63.7098 120.01 62.5231 121.619 61.1836C123.227 59.8441 124.037 58.6643 124.02 57.6592C124.014 57.3096 123.863 57.0208 123.568 56.8073C123.272 56.5939 122.877 56.4988 122.397 56.5072C120.896 56.5334 119.127 57.0306 117.075 58.0135C115.023 58.9965 113.006 60.314 111.024 61.966C109.516 63.1872 107.897 64.7745 106.153 66.743L106.153 66.7284Z" fill="#373230"/>
<path id="Vector_9" d="M117.451 74.6041L117.45 74.5313C117.401 74.2553 117.741 73.7247 118.486 72.954L119.458 71.8734C120.73 70.4815 121.942 69.7754 123.122 69.7549C123.428 69.7495 123.677 69.8617 123.885 70.0912C124.093 70.3207 124.2 70.6103 124.207 70.9599C124.222 71.8485 123.688 72.9652 122.633 74.2951L121.137 76.23L119.642 78.2815C119.077 79.2823 118.738 79.8856 118.639 80.0913C118.541 80.297 118.502 80.5454 118.507 80.8513C118.512 81.1572 118.661 81.3004 118.937 81.2955C119.724 81.2818 120.871 80.2272 122.394 78.1461L125.527 73.9823L128.012 70.2815C128.24 69.9424 128.645 69.775 129.257 69.7643C129.46 69.7608 129.65 69.7575 129.825 69.7981L129.827 69.9147C129.827 69.9147 129.799 69.9734 129.757 70.0325C129.729 70.1058 129.701 70.1792 129.644 70.2676C129.516 70.4447 129.403 70.6506 129.276 70.886L129.162 71.0046C129.162 71.0046 129.105 71.0784 129.048 71.1523L125.07 77.0065C124.644 77.626 124.234 78.3471 123.826 79.1848C123.418 80.0225 123.223 80.565 123.227 80.8127C123.233 81.1186 123.396 81.2614 123.731 81.2556C124.284 81.2459 124.948 80.8846 125.693 80.1576L126.923 78.8393L127.781 77.8772L131.17 73.3592L133.586 69.8491C133.628 69.7755 133.686 69.7307 133.729 69.73C133.802 69.7287 133.847 69.7717 133.848 69.8445C133.849 69.9173 133.85 69.9756 133.807 69.9909L132.474 72.1125L128.759 77.1753L128.575 77.4408L126.861 79.4524C125.647 80.8724 124.582 81.5904 123.693 81.606C123.387 81.6113 123.137 81.4991 122.944 81.2693C122.751 81.0395 122.643 80.75 122.637 80.4004C122.624 79.6575 123.027 78.4993 123.83 76.9116L122.147 78.9955C120.749 80.7539 119.672 81.6324 118.885 81.6462C118.608 81.651 118.358 81.5096 118.149 81.2073C117.94 80.905 117.831 80.5426 117.824 80.1056C117.801 78.78 118.517 77.2229 119.986 75.4196L121.626 73.3655C122.724 72.0204 123.262 71.093 123.252 70.554C123.247 70.2481 123.084 70.1052 122.749 70.1111C121.89 70.1261 120.752 70.9182 119.367 72.5015L118.652 73.2717C118.309 73.6857 118.067 74.0105 117.94 74.2313C117.769 74.482 117.597 74.6161 117.407 74.6194L117.451 74.6041Z" fill="#373230"/>
<path id="Vector_10" d="M134.15 76.9791L132.323 79.1821C131.081 80.6755 129.944 81.4385 128.895 81.4568C128.56 81.4626 128.295 81.3215 128.072 81.0486C127.848 80.7756 127.74 80.4132 127.733 79.9908C127.72 79.2479 127.966 78.3547 128.487 77.2673C128.557 77.1204 128.712 76.8408 128.924 76.4583C129.094 76.1785 129.334 75.7517 129.631 75.1928L131.601 72.0693L140.66 58.4181C141.356 57.386 141.811 56.766 142.04 56.5435C142.27 56.3209 142.559 56.2138 142.909 56.2077L143.521 56.1971L133.755 71.0409L130.566 76.1965C129.234 78.3326 128.574 79.7867 128.588 80.5733C128.593 80.8792 128.742 81.0223 129.047 81.017C129.455 81.0098 130.033 80.7083 130.766 80.1127C131.498 79.517 132.214 78.7906 132.884 77.9483L135.492 74.5514L139.287 69.1083L139.435 69.2514L139.325 69.6322L139.027 70.06L136.867 73.1868L134.15 76.9645L134.15 76.9791Z" fill="#373230"/>
<path id="Vector_11" d="M139.035 68.9671L137.739 69.0334L137.594 69.036C137.244 69.0421 137.054 68.9871 137.051 68.856C137.048 68.6812 137.163 68.5918 137.396 68.5877L139.334 68.5539L142.604 63.9214C142.746 63.7149 143.24 63.6043 144.085 63.5896C144.187 63.5878 144.231 63.6162 144.232 63.6599C144.232 63.7036 144.176 63.8065 144.091 63.9246C143.092 65.1369 142.011 66.6566 140.819 68.4842L142.726 68.4072L142.959 68.4032C143.309 68.3971 143.499 68.452 143.502 68.5831C143.504 68.7288 143.302 68.8198 142.894 68.8269L140.535 68.9118C139.996 69.7372 139.569 70.3566 139.27 70.7698C136.912 74.2207 135.379 76.5497 134.643 77.7866C133.921 79.0232 133.557 79.8892 133.566 80.3991C133.573 80.8069 133.737 81.0081 134.072 81.0022C134.961 80.9867 136.768 79.3232 139.478 75.9973L141.005 74.1347C141.005 74.1347 141.091 74.0603 141.12 74.0598C141.222 74.058 141.267 74.1301 141.27 74.2903C141.272 74.3923 140.83 74.9829 139.946 76.062C139.061 77.1412 138.233 78.1173 137.461 78.9614C135.945 80.5907 134.779 81.4125 133.963 81.4267C133.322 81.4379 133.006 80.8751 132.986 79.7243C132.977 79.1708 133.167 78.3952 133.558 77.4266C133.851 76.6784 134.218 75.9726 134.657 75.28C135.097 74.5875 135.992 73.3042 137.329 71.4303C138.154 70.2793 138.723 69.468 139.035 68.9962L139.035 68.9671Z" fill="#373230"/>
<path id="Vector_12" d="M144.474 76.6529L143.161 78.2349C141.521 80.289 140.228 81.3315 139.296 81.3478C138.742 81.3575 138.444 80.9401 138.429 80.1098C138.415 79.2795 138.631 78.3286 139.08 77.3299C139.529 76.3458 140.38 74.9758 141.617 73.2348L143.367 70.8437C143.737 70.2981 144.023 69.9725 144.21 69.8381C144.397 69.7037 144.672 69.6406 145.022 69.6345L145.823 69.6205L140.948 76.6416L139.985 78.2612C139.32 79.3948 138.984 80.173 138.991 80.5954C138.996 80.8722 139.13 81.0156 139.378 81.0112C139.931 81.0016 140.637 80.523 141.48 79.5611L143.081 77.8138L145.247 74.9928L148.772 69.9042C149 69.6234 149.303 69.4578 149.681 69.4366L150.439 69.4234L150.443 69.6856L145.291 77.5129L144.923 78.1313C144.298 79.0894 144.006 79.8668 144.016 80.464C144.019 80.5951 144.064 80.6963 144.168 80.7819C144.271 80.8675 144.374 80.9095 144.476 80.9077C144.956 80.8993 145.632 80.3775 146.503 79.3423L147.615 77.9532L151.3 72.8618L152.497 71.3109C153.508 69.9235 154.37 69.2236 155.054 69.2117C155.331 69.2069 155.566 69.3048 155.759 69.4908C155.951 69.6769 156.057 69.9082 156.062 70.1849C156.072 70.7239 155.879 71.383 155.485 72.1621C155.09 72.9413 154.733 73.3701 154.399 73.4197C154.327 73.4501 154.109 73.4684 153.759 73.4745L153.715 73.4753C153.585 73.5213 153.526 73.4786 153.523 73.333C153.523 73.2892 153.565 73.2011 153.665 73.0973C154.729 71.4468 155.249 70.3594 155.24 69.835C155.238 69.6893 155.149 69.6035 154.974 69.6065C154.362 69.6172 153.359 70.5818 151.979 72.5148L149.716 75.5997L147.668 78.4477C146.301 80.3075 145.195 81.2303 144.321 81.2455C144.045 81.2504 143.809 81.1379 143.63 80.8933C143.451 80.6487 143.358 80.3443 143.352 79.9656C143.345 79.5577 143.397 79.1925 143.507 78.8555C143.618 78.5184 143.926 77.7844 144.445 76.6243L144.474 76.6529Z" fill="#373230"/>
<path id="Vector_13" d="M148.427 81.0722L148.308 80.9577L149.801 78.8334L153.251 73.6295L154.625 71.3907L155.105 70.4643C155.301 70.0237 155.53 69.8157 155.822 69.8107C155.866 69.8099 155.912 69.9694 155.947 70.3039C155.985 70.8132 155.651 71.7079 154.959 72.9877L154.183 74.4438L154.184 74.4875L156.171 72.2817L156.612 71.662L157.046 70.6636C157.368 69.9002 157.778 69.2082 158.292 68.6018C158.806 67.9954 159.224 67.6967 159.559 67.6909C159.792 67.6868 159.91 67.8013 159.915 68.0344C159.925 68.617 159.3 69.5751 158.056 70.9228L157.197 71.7829C156.955 72.0932 156.83 72.4596 156.837 72.8966C156.847 73.4356 157.055 73.6942 157.463 73.6871C157.769 73.6818 158.059 73.5747 158.347 73.3803C158.635 73.1858 159.166 72.7248 159.94 71.9973C160.183 71.7454 160.37 71.611 160.472 71.6092C160.516 71.6084 160.59 71.6945 160.666 71.8681C160.365 72.1211 160.078 72.4029 159.806 72.6845C158.832 73.6195 158.038 74.0851 157.427 74.0958C156.815 74.1064 156.472 73.6753 156.369 72.7737L154.497 74.8609L152.815 77.0177L150.215 80.8662L148.426 81.0431L148.427 81.0722Z" fill="#373230"/>
<path id="Vector_14" d="M161.772 76.7302L161.771 76.6573C161.372 77.2034 161.044 77.6026 160.801 77.8545L159.415 79.4379C158.37 80.5198 157.506 81.074 156.821 81.086C156.471 81.0921 156.163 80.9226 155.923 80.5625C155.669 80.2172 155.545 79.7823 155.536 79.2724C155.505 77.4953 156.147 75.8521 157.475 74.328L158.404 73.2481L159.866 71.8529L161.376 70.7191C162.784 69.6017 164.057 69.0403 165.193 69.0205C165.776 69.0103 166.073 69.3257 166.084 69.9521L166.09 70.3017C166.319 70.0646 166.461 69.8872 166.532 69.7548C166.76 69.474 166.946 69.2959 167.091 69.2351C167.236 69.1743 167.614 69.124 168.196 69.1138C168.226 69.1716 168.242 69.215 168.243 69.2587C168.244 69.3315 168.187 69.4345 168.059 69.5679L166.493 71.7226L163.892 75.4692L162.445 77.7093C161.711 79.0481 161.346 79.8704 161.352 80.2055C161.356 80.4531 161.504 80.5817 161.81 80.5763C162.393 80.5662 163.17 80.0135 164.142 78.9328L165.9 76.9932L169.362 72.4303L171.667 69.2718C171.767 69.168 171.854 69.1228 171.927 69.1215C171.97 69.1208 172 69.164 172.002 69.2368C172.005 69.4116 170.369 71.6841 167.093 76.0253L165.381 78.1097L164.064 79.4733C163.163 80.4507 162.356 80.9457 161.657 80.9579C161.409 80.9622 161.188 80.8495 161.009 80.6049C160.83 80.3603 160.738 80.0851 160.732 79.75C160.719 78.9925 161.065 77.9811 161.786 76.7153L161.772 76.7302ZM159.409 74.1049L158.298 75.5668C156.904 77.5 156.23 78.9689 156.248 79.9886C156.252 80.1925 156.313 80.3663 156.446 80.4951C156.58 80.6385 156.741 80.694 156.945 80.6904C157.528 80.6802 158.334 80.1124 159.349 78.9727L160.849 77.2708L163.598 73.6383C165.036 71.7335 165.758 70.4969 165.747 69.8997C165.745 69.754 165.684 69.6094 165.551 69.5097C165.418 69.3954 165.271 69.3397 165.097 69.3428C164.281 69.357 163.2 70.0461 161.854 71.4248L160.581 72.7438L159.424 74.1046L159.409 74.1049Z" fill="#373230"/>
<path id="Vector_15" d="M171.012 69.3705L179.598 57.0244C179.996 56.4637 180.281 56.1236 180.469 56.0038C180.656 55.8839 181.019 55.8193 181.558 55.8099C181.631 55.8086 181.675 55.837 181.676 55.8807C181.677 55.9244 181.492 56.2045 181.122 56.6918L180.895 57.0455L172.131 70.0358C168.367 75.5949 166.5 78.8623 166.518 79.8528C166.524 80.1879 166.672 80.3456 166.978 80.3402C167.998 80.3224 169.69 78.7775 172.085 75.7194L173.767 73.5918C173.867 73.4589 173.938 73.3994 173.997 73.3983C174.07 73.3971 174.114 73.4546 174.117 73.5857C174.119 73.7313 174.063 73.8635 173.978 73.967L172.667 75.7092C170.103 79.0763 168.195 80.7853 166.928 80.8074C166.593 80.8132 166.314 80.687 166.062 80.4291C165.809 80.1712 165.687 79.8382 165.68 79.4595C165.654 77.9299 167.431 74.5767 171.027 69.3848L171.012 69.3705Z" fill="#373230"/>
<path id="Vector_16" d="M0.875567 45.0777C0.817594 41.7564 2.81948 37.9038 8.00529 37.8133C10.1466 37.7759 12.0666 38.4127 11.8741 39.0717L11.6818 39.7454C11.1581 41.4594 10.1698 39.1015 6.99418 39.1569C4.2119 39.2055 2.65513 41.0104 2.70675 43.9674C2.78074 48.2064 6.02004 50.1316 8.87515 50.0817C9.19562 50.0761 10.6771 49.8026 11.9305 48.9793C12.0743 48.8747 12.4303 49.2328 12.3168 49.4096C11.5217 50.6038 9.07766 51.6665 8.56782 51.6754C5.37767 51.731 0.974804 49.9282 0.890134 45.0774L0.875567 45.0777Z" fill="#373230"/>
<path id="Vector_17" d="M15.7369 50.7047C16.8535 50.3937 17.7247 50.2183 17.7003 48.8198L17.5498 40.1962C17.5267 38.8706 16.7209 38.6224 15.8886 38.5204C15.7426 38.5084 15.8352 37.9676 15.9809 37.9651L20.7879 37.8812C20.9336 37.8786 21.0447 38.4012 20.9141 38.4327C20.1004 38.5634 19.3475 38.8389 19.3707 40.1644L19.5212 48.7881C19.5403 49.8806 20.0708 50.221 21.7314 50.192C24.8924 50.1369 25.7893 48.9264 26.2409 48.0879C26.3823 47.8377 26.82 47.8738 26.8261 48.2234C26.8452 49.3159 26.1034 51.0629 24.9677 51.1118C24.1072 51.0686 22.8243 51.0327 21.1928 51.0611C19.4303 51.0919 17.6229 51.0652 15.878 51.2705C15.6888 51.2884 15.6066 50.7507 15.7515 50.7044L15.7369 50.7047Z" fill="#373230"/>
<path id="Vector_18" d="M31.1875 46.049L31.0812 39.9601C31.0596 38.7219 30.3689 38.3842 29.4782 38.2832C29.3323 38.2712 29.4249 37.7304 29.5851 37.7276L34.3339 37.6447C34.4796 37.6422 34.6053 38.1645 34.4601 38.1962C33.7047 38.326 32.9518 38.6014 32.9749 39.927L33.0827 46.1034C33.13 48.8128 34.741 50.1107 36.926 50.0725C39.111 50.0344 40.8505 48.678 40.8032 45.9686L40.6954 39.7922C40.6735 38.5395 39.9541 38.2315 39.0196 38.1166C38.8882 38.1044 38.9662 37.5639 39.1264 37.5611L43.2052 37.4899C43.3508 37.4873 43.4765 38.0097 43.3314 38.0414C42.5322 38.1719 41.7793 38.4473 41.8025 39.7729L41.9082 45.8327C41.9687 49.2997 39.771 51.1157 36.814 51.1673C34.221 51.2126 31.2833 49.865 31.2164 46.0339L31.1875 46.049Z" fill="#373230"/>
<path id="Vector_19" d="M46.7052 50.1644C47.8218 49.8535 48.693 49.678 48.6686 48.2796L48.5199 39.7579C48.4975 38.476 47.6902 38.1404 46.8566 37.9655C46.7102 37.9244 46.7881 37.3839 46.9486 37.3956C47.7516 37.4836 48.5967 37.4835 49.1357 37.474C50.3885 37.4522 51.5226 37.3158 52.3675 37.3011C54.873 37.2573 56.9307 38.2705 56.9673 40.3682C57.0101 41.9849 55.8038 42.9968 54.6716 43.2497L54.6734 43.3516C56.3777 43.3219 58.0904 44.6034 58.1272 46.7156C58.1669 48.988 56.1985 50.5815 52.9209 50.6387C52.0178 50.6545 50.8212 50.5588 49.6267 50.5797C48.6653 50.5965 47.7333 50.6273 46.8465 50.7448C46.6574 50.7626 46.5751 50.2249 46.7201 50.1787L46.7052 50.1644ZM52.4542 43.0989C54.0128 43.0717 55.11 42.4843 55.0802 40.78C55.0451 38.7697 53.4607 38.1563 51.8729 38.184C50.6639 38.2051 50.3063 38.5902 50.3262 39.7264L50.3857 43.135L52.4542 43.0989ZM52.9785 49.7635C55.047 49.7274 56.1577 49.0814 56.1231 47.1003C56.0799 44.6239 54.3483 43.9256 52.4692 43.9584L50.4007 43.9945L50.4752 48.2626C50.4937 49.326 51.1142 49.8106 52.9787 49.778L52.9785 49.7635Z" fill="#373230"/>
<path id="Vector_20" d="M100.776 49.2206C101.892 48.9097 102.763 48.7342 102.739 47.3357L102.59 38.8141C102.568 37.5322 101.761 37.2112 100.927 37.0217C100.78 36.9806 100.844 36.4403 101.034 36.4516C101.807 36.5401 102.609 36.5407 103.191 36.5305C104.444 36.5086 105.768 36.3689 106.773 36.3514C111.493 36.269 113.885 38.9375 113.95 42.6375C114.014 46.3375 111.623 49.6141 106.991 49.6949C106.059 49.7112 104.892 49.615 103.697 49.6359C102.736 49.6526 101.804 49.6835 100.917 49.801C100.728 49.8188 100.645 49.2811 100.79 49.2349L100.776 49.2206ZM106.946 48.7923C110.326 48.7333 112.188 46.8794 112.129 43.5144C112.07 40.1495 109.993 37.184 106.293 37.2486C104.778 37.2751 104.393 37.7335 104.411 38.7823L104.56 47.304C104.578 48.3673 105.096 48.8246 106.961 48.792L106.946 48.7923Z" fill="#373230"/>
<path id="Vector_21" d="M116.888 48.9393C118.004 48.6284 118.876 48.4529 118.851 47.0545L118.702 38.5329C118.68 37.251 117.873 36.9154 117.039 36.7405C116.893 36.6993 116.956 36.1591 117.146 36.1703C118.546 36.2625 120.411 36.2299 121.926 36.2035C123.645 36.1735 124.954 36.0777 126.41 36.0086C126.847 36.001 126.867 36.3066 126.758 36.7166L126.308 38.5021C126.254 38.7653 125.803 38.7732 125.725 38.5123C125.448 37.6428 124.825 36.998 122.407 37.0402C120.935 37.0659 120.504 37.4086 120.523 38.5011L120.578 41.6621C120.587 42.1574 120.836 42.2404 121.215 42.2338L121.55 42.228C123.298 42.1975 124.549 42.0736 125.379 41.2286C125.551 41.0507 125.945 41.0876 125.806 41.4543L124.726 43.8628C124.585 44.1567 124.337 44.1173 124.114 43.8589C123.652 43.2987 122.672 43.0681 121.507 43.0885L121.215 43.0935C120.837 43.1001 120.591 43.1919 120.599 43.6871L120.657 47.023C120.677 48.1155 121.207 48.4559 122.868 48.427C126.029 48.3718 126.926 47.1613 127.377 46.3228C127.519 46.0726 127.956 46.1087 127.962 46.4583C127.981 47.5508 127.24 49.2978 126.104 49.3467C125.243 49.3035 123.961 49.2676 122.329 49.2961C120.567 49.3268 118.759 49.3001 117.014 49.5054C116.825 49.5233 116.743 48.9856 116.888 48.9393Z" fill="#373230"/>
<path id="Vector_22" d="M131.208 48.6891C132.324 48.3782 133.195 48.2027 133.171 46.8043L133.02 38.1807C132.997 36.8551 132.192 36.6069 131.359 36.5048C131.213 36.4928 131.306 35.952 131.452 35.9495L136.259 35.8656C136.404 35.863 136.515 36.3857 136.385 36.4171C135.571 36.5479 134.818 36.8233 134.841 38.1489L134.992 46.7725C135.011 47.865 135.541 48.2055 137.202 48.1765C140.363 48.1213 141.26 46.9108 141.712 46.0723C141.853 45.8222 142.291 45.8582 142.297 46.2078C142.316 47.3004 141.574 49.0473 140.438 49.0963C139.578 49.053 138.295 49.0171 136.664 49.0456C134.901 49.0763 133.094 49.0496 131.349 49.2549C131.16 49.2728 131.077 48.7351 131.222 48.6888L131.208 48.6891Z" fill="#373230"/>
<path id="Vector_23" d="M151.531 47.6642L151.695 47.0202C152.159 45.2344 152.731 47.9347 155.863 47.88C157.552 47.8505 158.514 47.0177 158.493 45.7941C158.474 44.7453 157.71 44.3361 156.518 43.672L154.237 42.3859C152.338 41.2824 151.609 40.4354 151.587 39.1681C151.548 36.9685 153.617 35.2859 156.05 35.2434C157.521 35.2177 159.294 35.7988 159.116 36.443L158.895 37.1463C158.428 38.7719 157.877 36.4063 155.284 36.4516C153.784 36.4778 153.04 37.2922 153.058 38.3264C153.073 39.1568 153.577 39.6434 154.872 40.3785L157.212 41.7219C159.14 42.8103 159.898 43.6713 159.921 44.9532C159.96 47.2402 157.676 49.0869 155.141 49.1312C153.568 49.1586 151.327 48.4837 151.517 47.679L151.531 47.6642Z" fill="#373230"/>
<path id="Vector_24" d="M164.778 43.7172L164.672 37.6282C164.65 36.39 163.96 36.0524 163.069 35.9514C162.923 35.9393 163.016 35.3986 163.176 35.3958L167.925 35.3129C168.07 35.3103 168.196 35.8327 168.051 35.8644C167.295 35.9941 166.543 36.2696 166.566 37.5952L166.674 43.7715C166.721 46.481 168.332 47.7788 170.517 47.7407C172.702 47.7026 174.441 46.3462 174.394 43.6368L174.286 37.4604C174.264 36.2076 173.545 35.8996 172.61 35.7848C172.479 35.7725 172.557 35.232 172.717 35.2292L176.796 35.158C176.942 35.1555 177.067 35.6779 176.922 35.7095C176.123 35.8401 175.37 36.1155 175.393 37.4411L175.499 43.5009C175.56 46.9678 173.362 48.7839 170.405 48.8355C167.812 48.8808 164.874 47.5332 164.807 43.7021L164.778 43.7172Z" fill="#373230"/>
<path id="Vector_25" d="M190.27 47.2356L187.202 43.486C186.428 42.5087 185.346 42.3236 183.918 42.3339L183.983 46.063C184.006 47.3741 184.87 47.5776 186.154 47.73C186.286 47.7423 186.208 48.2828 186.048 48.2856L180.702 48.3789C180.556 48.3814 180.43 47.859 180.575 47.8274C181.505 47.68 182.184 47.3184 182.163 46.0948L182.012 37.4566C181.99 36.2039 181.299 35.8517 180.363 35.6349C180.216 35.5937 180.294 35.0678 180.469 35.0793C181.229 35.168 182.088 35.1676 182.613 35.1585C183.851 35.1368 185 35.0002 185.845 34.9855C188.481 34.9395 190.526 36.0258 190.567 38.4147C190.609 40.8037 188.732 41.7982 187.35 41.9243L187.352 42.0408C188.022 42.0291 188.449 42.284 189.268 43.2751L192.289 46.9235C192.81 47.5555 193.295 47.7365 193.804 47.7276C193.95 47.7251 193.944 48.206 193.814 48.252C192.816 48.692 191.254 48.5298 190.255 47.2504L190.27 47.2356ZM184.53 41.5072C187.371 41.4577 188.688 40.9392 188.652 38.8999C188.617 36.8605 187.2 35.8215 185.408 35.8528C184.228 35.8734 183.799 36.3326 183.818 37.4106L183.889 41.5184L184.516 41.5075L184.53 41.5072Z" fill="#373230"/>
<path id="Vector_26" d="M36.8124 106.291C37.1903 106.24 37.6471 105.693 37.6285 104.63L37.5352 99.2837C37.524 98.6427 37.1287 98.533 36.7343 98.4816C36.6615 98.4829 36.7154 98.2343 36.7883 98.233L38.9442 98.1954C38.9442 98.1954 39.0793 98.4261 39.0068 98.442C38.6145 98.5071 38.2523 98.63 38.2635 99.271L38.3568 104.617C38.3729 105.535 37.4576 106.527 36.9332 106.536C36.8749 106.537 36.7543 106.306 36.8269 106.29L36.8124 106.291Z" fill="#373230"/>
<path id="Vector_27" d="M40.3134 101.378C40.2816 99.5569 41.5222 98.0052 43.5033 97.9706C45.4844 97.9361 46.7621 99.3418 46.7944 101.192C46.8267 103.042 45.6001 104.564 43.6044 104.599C41.6088 104.634 40.3457 103.228 40.3131 101.363L40.3134 101.378ZM43.8879 104.142C44.791 104.126 46.1072 103.564 46.0736 101.641C46.0401 99.7186 44.6625 98.4313 43.2058 98.4567C42.3172 98.4722 41.001 99.0343 41.0343 100.943C41.0676 102.851 42.4312 104.168 43.8879 104.142Z" fill="#373230"/>
<path id="Vector_28" d="M48.2534 103.803L48.3357 103.51C48.5407 102.735 48.7806 103.954 50.281 103.928C51.1113 103.914 51.6577 103.496 51.647 102.884C51.6374 102.331 51.1963 102.105 50.6962 101.837L49.4604 101.159C48.6071 100.693 48.3081 100.262 48.2985 99.708C48.2807 98.6883 49.2138 97.8852 50.4083 97.8643C51.122 97.8519 51.9429 98.129 51.8608 98.4364L51.779 98.7584C51.5875 99.4758 51.3063 98.3878 50.0535 98.4097C49.2815 98.4232 48.9098 98.8376 48.9187 99.3475C48.9256 99.7408 49.163 99.9844 49.7809 100.323L51.0022 101.001C51.8848 101.481 52.2418 101.898 52.2522 102.495C52.2708 103.558 51.1792 104.466 49.9702 104.487C49.2127 104.501 48.1721 104.154 48.2677 103.789L48.2534 103.803Z" fill="#373230"/>
<path id="Vector_29" d="M53.3582 104.093C53.8949 103.953 54.3158 103.858 54.3041 103.188L54.2321 99.0654C54.221 98.4245 53.8249 98.2711 53.4298 98.176C53.3567 98.1627 53.3963 97.9289 53.4837 97.9274C54.1689 97.9445 54.8831 97.9612 55.728 97.9465C56.5729 97.9317 57.1988 97.8916 57.8683 97.8508C58.0723 97.8473 58.0748 97.9929 58.0201 98.1979L57.8018 99.0468C57.7747 99.1639 57.5562 99.1677 57.525 99.0517C57.4159 98.6456 57.0894 98.3016 55.9094 98.3222C55.1665 98.3351 54.9363 98.4994 54.9459 99.053L54.9726 100.582C54.9767 100.816 55.094 100.857 55.2834 100.854L55.4436 100.851C56.3467 100.835 56.9146 100.811 57.3292 100.352C57.415 100.263 57.6049 100.289 57.5346 100.436L57.0009 101.582C56.9449 101.714 56.8279 101.687 56.7239 101.572C56.5008 101.314 56.0181 101.205 55.4354 101.216L55.3043 101.218C55.1295 101.221 54.9991 101.267 55.0032 101.5L55.0319 103.146C55.0411 103.67 55.3204 103.811 56.1362 103.797C57.7531 103.769 58.0933 103.224 58.3333 102.782C58.4184 102.65 58.5932 102.647 58.5962 102.822C58.6062 103.39 58.27 104.168 57.7316 104.206C57.396 104.183 56.6963 104.166 55.8951 104.18C55.0502 104.195 54.2777 104.179 53.4198 104.282C53.3324 104.283 53.2851 104.08 53.3574 104.05L53.3582 104.093Z" fill="#373230"/>
<path id="Vector_30" d="M61.849 103.916C62.2704 103.85 62.632 103.698 62.6214 103.086L62.5474 98.8474C62.5367 98.2356 62.1845 98.096 61.7465 98.0454C61.6737 98.0467 61.7279 97.8126 61.8007 97.8113L63.9566 97.7737C64.0295 97.7724 64.0918 98.0045 64.019 98.0057C63.6121 98.0711 63.25 98.194 63.2612 98.835L63.3351 103.074C63.3463 103.715 63.7125 103.825 64.1214 103.876C64.1943 103.875 64.1401 104.109 64.0672 104.11L61.9113 104.148C61.8385 104.149 61.7762 103.917 61.849 103.916Z" fill="#373230"/>
<path id="Vector_31" d="M65.3401 101.072C65.3088 99.2803 66.5029 97.5692 68.9502 97.5264C69.999 97.5081 70.8203 97.8144 70.7518 98.0633L70.6554 98.3855C70.4491 99.0886 69.8778 98.0785 68.3774 98.1047C66.9644 98.1294 66.0918 99.0626 66.1185 100.592C66.1582 102.865 67.8635 103.724 69.058 103.703C69.6989 103.692 70.1449 103.363 70.134 102.737L70.1309 102.562C70.1184 101.848 69.8672 101.649 69.0929 101.531C68.9761 101.519 69.0296 101.241 69.2335 101.237L71.2874 101.201C71.5205 101.197 71.3794 101.462 71.2925 101.493C71.0173 101.585 70.8166 101.778 70.8271 102.375L70.8327 102.696C70.8375 102.972 70.84 103.118 71.0207 103.45C70.4574 103.737 69.5903 104.145 69.3426 104.15C67.1576 104.188 65.3777 103.228 65.3398 101.057L65.3401 101.072Z" fill="#373230"/>
<path id="Vector_32" d="M78.2846 103.775L73.7842 98.8844L73.8538 102.876C73.864 103.458 74.2159 103.583 74.611 103.679C74.6841 103.692 74.6442 103.911 74.5568 103.913L72.6922 103.945C72.6048 103.947 72.5573 103.729 72.6299 103.713C73.1234 103.603 73.3971 103.423 73.3877 102.884L73.3229 99.1693C73.3145 98.6886 73.2918 98.2227 72.9067 97.8652C72.877 97.8366 72.8034 97.7941 72.8024 97.7359C72.8014 97.6776 72.8581 97.5892 72.931 97.5879L73.5136 97.5777C73.6156 97.5759 73.6739 97.5749 73.7482 97.6611L78.1608 102.524L78.0919 98.5761C78.0807 97.9352 77.7005 97.8544 77.3345 97.7587C77.2614 97.7454 77.3013 97.5262 77.3887 97.5247L79.2533 97.4921C79.3407 97.4906 79.4027 97.7081 79.3156 97.7242C78.8947 97.8189 78.5469 97.927 78.558 98.568L78.6226 102.268C78.6315 102.778 78.643 103.433 78.7505 103.752C78.7968 103.897 78.6516 103.929 78.5642 103.93C78.4331 103.932 78.359 103.861 78.2698 103.76L78.2846 103.775Z" fill="#373230"/>
<path id="Vector_33" d="M80.2182 103.566C80.5962 103.516 80.8119 103.352 81.1475 102.544L82.6168 99.0654C82.9524 98.2581 83.0613 97.819 83.0555 97.484C83.0545 97.4257 83.6929 97.2689 83.7233 97.3412L86.0274 102.459C86.3913 103.269 86.6123 103.411 86.9775 103.463C87.1089 103.475 87.0695 103.723 86.9675 103.725L84.899 103.761C84.7971 103.763 84.7636 103.516 84.8653 103.5C85.2287 103.449 85.5464 103.284 85.1974 102.488L85.0004 102.055C84.924 101.852 84.6766 101.871 84.3561 101.876L82.4042 101.91C82.1274 101.915 81.8798 101.92 81.7957 102.111L81.6285 102.551C81.2936 103.402 81.6448 103.483 82.1122 103.548C82.2144 103.56 82.2041 103.808 82.0876 103.81L80.2522 103.842C80.1357 103.844 80.1022 103.597 80.2185 103.581L80.2182 103.566ZM82.3677 101.489L84.4362 101.452C84.5964 101.45 84.7564 101.432 84.6961 101.317L83.3462 98.2804L82.0886 101.362C82.0321 101.465 82.1929 101.492 82.3531 101.489L82.3677 101.489Z" fill="#373230"/>
<path id="Vector_34" d="M87.6572 100.61C87.6292 99.0073 88.6028 97.1834 91.05 97.1407C92.0697 97.1229 92.993 97.4274 92.8966 97.7496L92.8143 98.0425C92.608 98.7455 92.0653 97.7058 90.6086 97.7313C89.2539 97.7549 88.4092 98.6148 88.4354 100.115C88.4707 102.14 90.0178 103.118 91.4745 103.093C91.6201 103.09 92.2447 102.978 92.9363 102.528C93.0084 102.483 93.142 102.627 93.0996 102.7C92.7162 103.275 91.5738 103.776 91.3553 103.78C89.8258 103.807 87.6978 102.94 87.6572 100.61Z" fill="#373230"/>
<path id="Vector_35" d="M94.3343 103.349C94.7558 103.283 95.1174 103.131 95.1067 102.519L95.0327 98.2804C95.022 97.6686 94.6699 97.529 94.2319 97.4784C94.159 97.4796 94.2132 97.2456 94.2861 97.2443L96.442 97.2067C96.442 97.2067 96.5771 97.4374 96.5043 97.4387C96.0975 97.5041 95.7353 97.627 95.7465 98.2679L95.8205 102.507C95.8317 103.148 96.1979 103.258 96.6068 103.309C96.6796 103.308 96.6254 103.542 96.5526 103.543L94.3967 103.581C94.3238 103.582 94.2615 103.35 94.3343 103.349Z" fill="#373230"/>
<path id="Vector_36" d="M97.8065 100.374C97.7747 98.5533 99.0154 97.0017 100.996 96.9671C102.978 96.9325 104.255 98.3382 104.288 100.188C104.32 102.038 103.079 103.561 101.098 103.595C99.1165 103.63 97.8388 102.224 97.8063 100.36L97.8065 100.374ZM101.381 103.139C102.284 103.123 103.6 102.561 103.567 100.638C103.533 98.7151 102.156 97.4277 100.699 97.4531C99.8104 97.4686 98.4942 98.0307 98.5275 99.939C98.5608 101.847 99.9244 103.164 101.381 103.139Z" fill="#373230"/>
<path id="Vector_37" d="M105.093 104.516C105.409 104.292 105.704 103.661 105.7 103.384C105.696 103.194 105.301 103.114 105.298 102.925C105.295 102.735 105.754 102.348 105.871 102.346C105.973 102.344 106.417 102.716 106.42 102.92C106.429 103.444 105.947 104.196 105.314 104.658C105.228 104.733 105.036 104.576 105.079 104.531L105.093 104.516Z" fill="#373230"/>
<path id="Vector_38" d="M110.51 100.954L110.459 98.0112C110.448 97.3994 110.096 97.2598 109.687 97.2086C109.614 97.2099 109.668 96.9758 109.741 96.9745L111.868 96.9374C111.868 96.9374 112.003 97.1682 111.93 97.1695C111.582 97.2338 111.22 97.3567 111.231 97.9977L111.283 100.984C111.306 102.295 112.09 102.966 113.197 102.947C114.304 102.927 115.137 102.228 115.114 100.917L115.062 97.9308C115.051 97.319 114.699 97.1794 114.246 97.129C114.188 97.1301 114.228 96.8962 114.301 96.895L116.194 96.8619C116.282 96.8604 116.329 97.0927 116.257 97.094C115.864 97.1591 115.502 97.282 115.513 97.9229L115.565 100.865C115.593 102.512 114.545 103.375 113.146 103.399C111.923 103.421 110.527 102.775 110.495 100.954L110.51 100.954Z" fill="#373230"/>
<path id="Vector_39" d="M122.022 102.662L120.547 100.837C120.175 100.392 119.62 100.285 118.92 100.297L118.952 102.103C118.963 102.73 119.358 102.825 120.015 102.901C120.073 102.9 120.034 103.134 119.961 103.135L117.528 103.177C117.528 103.177 117.393 102.947 117.466 102.945C117.887 102.88 118.249 102.728 118.238 102.116L118.165 97.9352C118.155 97.338 117.817 97.169 117.363 97.0604C117.29 97.0471 117.33 96.8132 117.417 96.8263C117.782 96.8636 118.205 96.8708 118.438 96.8667C118.962 96.8576 119.471 96.7904 119.865 96.7836C121.044 96.763 122.058 97.2553 122.079 98.4206C122.099 99.586 121.16 100.069 120.564 100.123L120.565 100.181C120.856 100.176 121.033 100.289 121.405 100.749L122.894 102.53C123.132 102.803 123.323 102.901 123.6 102.897C123.672 102.895 123.661 103.1 123.604 103.13C123.185 103.341 122.469 103.237 122.022 102.676L122.022 102.662ZM119.235 99.942C120.619 99.9178 121.314 99.658 121.296 98.6383C121.278 97.6186 120.555 97.1212 119.667 97.1367C119.099 97.1466 118.855 97.384 118.864 97.9084L118.9 99.9478L119.22 99.9422L119.235 99.942Z" fill="#373230"/>
<path id="Vector_40" d="M124.96 100.701L124.909 97.7589C124.898 97.1471 124.546 97.0075 124.137 96.9564C124.064 96.9577 124.119 96.7236 124.191 96.7223L126.318 96.6852C126.391 96.6839 126.453 96.916 126.38 96.9172C126.032 96.9816 125.67 97.1045 125.681 97.7455L125.733 100.732C125.756 102.043 126.54 102.714 127.647 102.695C128.754 102.675 129.587 101.976 129.564 100.665L129.512 97.6786C129.501 97.0668 129.149 96.9272 128.697 96.8768C128.638 96.8778 128.678 96.644 128.751 96.6427L130.644 96.6097C130.732 96.6081 130.78 96.8405 130.707 96.8417C130.315 96.9069 129.952 97.0298 129.964 97.6707L130.015 100.613C130.044 102.259 128.995 103.123 127.597 103.147C126.373 103.168 124.977 102.523 124.946 100.702L124.96 100.701Z" fill="#373230"/>
<path id="Vector_41" d="M131.971 99.909C131.94 98.1173 133.134 96.4061 135.581 96.3634C136.63 96.3451 137.451 96.6513 137.383 96.9003L137.286 97.2225C137.08 97.9255 136.509 96.9155 135.008 96.9417C133.595 96.9664 132.723 97.8996 132.749 99.4291C132.789 101.702 134.494 102.561 135.689 102.54C136.33 102.529 136.776 102.2 136.765 101.574L136.762 101.399C136.749 100.685 136.498 100.486 135.724 100.368C135.607 100.356 135.66 100.078 135.864 100.074L137.918 100.038C138.151 100.034 138.01 100.299 137.923 100.33C137.648 100.422 137.447 100.615 137.458 101.212L137.464 101.533C137.468 101.809 137.471 101.955 137.652 102.287C137.088 102.574 136.221 102.982 135.973 102.987C133.788 103.025 132.009 102.065 131.971 99.8944L131.971 99.909Z" fill="#373230"/>
<path id="Vector_42" d="M140.008 100.439L139.957 97.4963C139.946 96.8845 139.594 96.7449 139.185 96.6937C139.112 96.695 139.166 96.4609 139.239 96.4597L141.366 96.4225C141.366 96.4225 141.501 96.6533 141.428 96.6546C141.08 96.719 140.718 96.8419 140.729 97.4828L140.781 100.469C140.804 101.78 141.588 102.451 142.695 102.432C143.802 102.413 144.635 101.713 144.612 100.402L144.56 97.4159C144.549 96.8041 144.197 96.6645 143.744 96.6142C143.686 96.6152 143.726 96.3813 143.799 96.3801L145.692 96.347C145.78 96.3455 145.827 96.5778 145.755 96.5791C145.362 96.6442 145 96.7671 145.011 97.408L145.063 100.351C145.092 101.997 144.043 102.86 142.644 102.884C141.421 102.906 140.025 102.26 139.994 100.439L140.008 100.439Z" fill="#373230"/>
<path id="Vector_43" d="M146.321 102.412C146.699 102.362 146.914 102.198 147.25 101.391L148.719 97.9115C149.055 97.1043 149.164 96.6652 149.158 96.3302C149.157 96.2719 149.795 96.1151 149.826 96.1874L152.13 101.305C152.494 102.115 152.715 102.257 153.08 102.309C153.211 102.321 153.172 102.57 153.07 102.571L151.002 102.607C150.9 102.609 150.866 102.362 150.968 102.346C151.331 102.296 151.649 102.13 151.3 101.334L151.103 100.901C151.027 100.698 150.779 100.717 150.459 100.723L148.507 100.757C148.23 100.761 147.982 100.766 147.898 100.957L147.731 101.397C147.396 102.248 147.747 102.329 148.215 102.394C148.317 102.407 148.307 102.654 148.19 102.656L146.355 102.689C146.238 102.691 146.205 102.443 146.321 102.427L146.321 102.412ZM148.47 100.335L150.539 100.299C150.699 100.296 150.859 100.278 150.799 100.163L149.449 97.1265L148.191 100.208C148.135 100.311 148.295 100.338 148.456 100.335L148.47 100.335Z" fill="#373230"/>
<path id="Vector_44" d="M153.096 96.4506C152.979 96.438 153.004 96.2045 153.121 96.2024L155.175 96.1666C155.291 96.1645 155.339 96.3968 155.208 96.4137C154.801 96.4791 154.633 96.8317 155.051 97.4364L156.367 99.3369L157.571 97.3924C157.953 96.7446 157.759 96.4566 157.233 96.3784C157.131 96.3656 157.141 96.1322 157.258 96.1302L159.093 96.0982C159.21 96.0961 159.243 96.3287 159.127 96.3453C158.749 96.4102 158.448 96.7069 158.038 97.3843L156.55 99.8L156.578 101.446C156.59 102.087 156.97 102.182 157.539 102.245C157.598 102.244 157.558 102.478 157.485 102.479L154.965 102.523C154.965 102.523 154.845 102.292 154.903 102.291C155.47 102.209 155.847 102.1 155.835 101.459L155.807 99.8421L154.192 97.4806C153.744 96.8181 153.476 96.5168 153.082 96.4654L153.096 96.4506Z" fill="#373230"/>
<path id="Vector_45" d="M74.0721 114.617C74.6087 114.476 75.0297 114.381 75.018 113.711L74.946 109.589C74.9348 108.948 74.5387 108.795 74.1436 108.7C74.0705 108.686 74.1102 108.452 74.1976 108.451C74.8827 108.468 75.597 108.485 76.4419 108.47C77.2868 108.455 77.9126 108.415 78.5822 108.374C78.7861 108.371 78.7887 108.516 78.734 108.721L78.5157 109.57C78.4886 109.687 78.2701 109.691 78.2389 109.575C78.1298 109.169 77.8032 108.825 76.6233 108.846C75.8804 108.859 75.6501 109.023 75.6598 109.577L75.6865 111.106C75.6906 111.339 75.8078 111.381 75.9972 111.377L76.1575 111.375C77.0606 111.359 77.6285 111.334 78.043 110.875C78.1289 110.787 78.3188 110.812 78.2485 110.959L77.7148 112.105C77.6588 112.237 77.5417 112.21 77.4377 112.095C77.2147 111.837 76.7319 111.729 76.1492 111.739L76.0181 111.741C75.8433 111.744 75.713 111.79 75.7171 112.023L75.7458 113.67C75.755 114.194 76.0343 114.335 76.85 114.321C78.4669 114.292 78.8071 113.747 79.0472 113.306C79.1323 113.173 79.3071 113.17 79.3101 113.345C79.32 113.913 78.9839 114.691 78.4454 114.73C78.1099 114.707 77.4102 114.69 76.609 114.704C75.7641 114.718 74.9916 114.703 74.1336 114.805C74.0462 114.807 73.999 114.603 74.0713 114.573L74.0721 114.617Z" fill="#373230"/>
<path id="Vector_46" d="M80.5925 114.124L80.6748 113.831C80.8796 113.04 81.1194 114.26 82.6198 114.234C83.4501 114.219 83.9966 113.802 83.9859 113.19C83.9762 112.637 83.5354 112.426 83.035 112.143L81.7992 111.465C80.946 110.999 80.647 110.567 80.6373 110.014C80.6195 108.994 81.5526 108.191 82.7471 108.17C83.4609 108.158 84.2817 108.435 84.1997 108.742L84.1179 109.064C83.9264 109.781 83.6451 108.693 82.3924 108.715C81.6203 108.729 81.2487 109.143 81.2576 109.653C81.2645 110.046 81.5019 110.29 82.1198 110.629L83.341 111.307C84.2237 111.787 84.5807 112.203 84.5911 112.801C84.6096 113.864 83.5181 114.772 82.309 114.793C81.5515 114.806 80.5109 114.46 80.6065 114.094L80.5925 114.124Z" fill="#373230"/>
<path id="Vector_47" d="M87.0506 114.361C87.6466 114.278 88.0959 114.139 88.0873 113.643L88.0061 108.997C88.0026 108.793 87.9428 108.706 87.7243 108.71L87.3456 108.717C86.355 108.734 86.0509 108.841 85.8116 109.326C85.7413 109.473 85.508 109.463 85.5349 109.331C85.6011 108.951 85.6706 108.76 85.7215 108.337C85.7338 108.206 85.8501 108.189 85.996 108.201C86.2296 108.226 86.7836 108.246 88.386 108.218C89.9883 108.19 90.7456 108.162 90.9779 108.114C91.1378 108.097 91.2838 108.109 91.2424 108.241C91.1327 108.636 91.0496 108.885 91.012 109.236C90.9857 109.396 90.7812 109.371 90.7498 109.24C90.6683 108.746 90.3172 108.665 89.4723 108.68L89.079 108.686C88.8605 108.69 88.7309 108.78 88.7345 108.984L88.8156 113.631C88.8242 114.126 89.2927 114.249 89.8766 114.312C89.9495 114.31 89.8953 114.544 89.8224 114.546L87.1275 114.593C87.0401 114.594 86.9926 114.377 87.0652 114.361L87.0506 114.361Z" fill="#373230"/>
<path id="Vector_48" d="M92.0294 114.026C92.0259 113.822 92.4565 113.451 92.5731 113.449C92.6896 113.447 93.1327 113.788 93.1365 114.007C93.1403 114.225 92.7094 114.583 92.5929 114.585C92.4909 114.587 92.0333 114.245 92.0294 114.026Z" fill="#373230"/>
<path id="Vector_49" d="M99.3631 114.335C98.8387 114.344 98.2706 114.354 97.3831 114.428C97.2811 114.43 97.2062 114.314 97.3062 114.196L99.2734 111.699C100.172 110.562 100.29 109.846 100.282 109.365C100.274 108.928 100.147 108.347 99.3609 108.361C98.1227 108.382 97.4921 109.821 97.4784 109.035L97.4738 108.773C97.4661 108.336 98.1871 107.901 99.1922 107.883C100.503 107.86 101.186 108.548 101.201 109.451C101.215 110.223 100.715 110.8 99.8574 111.762L98.3855 113.42C98.2566 113.553 98.2883 113.698 98.4194 113.696L98.5505 113.694C100.328 113.663 100.837 113.595 101.15 113.211C101.25 113.078 101.441 113.191 101.386 113.338L101.024 114.306C101.024 114.306 100.909 114.41 100.821 114.397C100.238 114.364 99.8002 114.327 99.3195 114.336L99.3631 114.335Z" fill="#373230"/>
<path id="Vector_50" d="M103.607 111.129C103.575 109.293 104.394 107.807 105.909 107.781C107.336 107.756 108.323 109.167 108.356 111.06C108.389 112.954 107.569 114.396 106.054 114.423C104.626 114.448 103.64 113.037 103.607 111.143L103.607 111.129ZM106.322 113.937C106.832 113.928 107.625 113.448 107.593 111.598C107.558 109.617 106.587 108.221 105.625 108.237C105.115 108.246 104.308 108.727 104.34 110.577C104.375 112.558 105.346 113.954 106.308 113.937L106.322 113.937Z" fill="#373230"/>
<path id="Vector_51" d="M112.778 114.101C112.254 114.11 111.686 114.12 110.798 114.194C110.696 114.196 110.621 114.08 110.721 113.962L112.688 111.465C113.587 110.327 113.705 109.611 113.697 109.131C113.689 108.694 113.563 108.113 112.776 108.127C111.538 108.148 110.907 109.587 110.893 108.801L110.889 108.539C110.881 108.102 111.602 107.666 112.607 107.649C113.918 107.626 114.601 108.313 114.616 109.217C114.63 109.989 114.13 110.566 113.272 111.528L111.8 113.185C111.672 113.319 111.703 113.464 111.834 113.462L111.966 113.459C113.743 113.428 114.252 113.361 114.565 112.977C114.665 112.844 114.856 112.957 114.801 113.104L114.439 114.072C114.439 114.072 114.324 114.176 114.236 114.163C113.653 114.129 113.215 114.093 112.734 114.102L112.778 114.101Z" fill="#373230"/>
<path id="Vector_52" d="M119.83 112.375L117.455 112.417C117.368 112.418 117.098 111.971 117.141 111.927L120.124 107.532C120.21 107.429 120.621 107.611 120.622 107.655C120.529 108.196 120.468 108.852 120.484 109.785L120.517 111.708C120.954 111.685 121.259 111.636 121.536 111.602C121.623 111.601 121.652 111.615 121.625 111.688L121.358 112.29C121.358 112.29 121.331 112.393 121.273 112.394C120.996 112.384 120.733 112.374 120.529 112.378C120.543 113.179 120.55 113.587 120.586 113.95C120.589 114.125 119.717 114.242 119.743 114.111C119.809 113.672 119.844 113.206 119.83 112.375ZM119.834 111.763L119.784 108.937C119.782 108.835 119.724 108.822 119.653 108.925L117.78 111.799L119.834 111.763Z" fill="#373230"/>
<path id="Vector_53" d="M101.379 27.8192C101.433 27.5851 101.281 27.2235 101.378 26.9595L102.164 26.8875C102.204 26.6537 102.46 26.3286 102.487 26.1824C102.606 25.5101 101.753 25.8892 101.909 25.6242C102.7 25.0567 102.875 24.194 103.004 23.2591C103.431 20.1771 102.873 14.912 100.058 13.0815C97.9945 11.7478 97.1051 12.5502 95.1619 12.2489C93.1895 11.9482 93.5926 8.32751 95.2982 7.54003C96.4836 6.99477 100.075 6.58236 101.417 6.66093C104.252 7.10688 107.098 7.39234 109.919 7.88224C110.489 7.97429 110.283 7.84675 110.289 7.35122C107.475 6.42406 104.216 5.85438 101.473 4.82398C98.466 3.69619 97.9581 2.14592 94.1356 2.70806C91.5197 3.10344 87.9249 6.69245 87.1381 9.19788L90.3545 6.47518L91.4284 6.2233C91.6799 6.43748 90.5382 7.81254 90.37 8.19433C89.4743 10.3082 89.3172 12.9921 91.1238 14.6508C93.0787 16.4527 94.4744 15.4375 96.6504 15.7201C99.3961 16.0802 100.179 21.6765 97.4336 23.0212C95.6564 23.8828 95.3299 21.8777 94.1486 20.9803C91.3279 18.8293 87.1253 20.9863 84.3958 22.3891C77.2615 26.0545 72.3143 30.6288 68.0905 37.4199C64.1927 43.6807 60.8948 50.922 59.8868 58.2835C60.8009 58.8941 60.6523 57.0607 60.8046 56.6064C61.1779 55.4487 61.6439 53.7649 62.1065 52.7222C62.2885 52.2965 62.4583 52.0021 62.8322 51.7187L61.9162 57.6798C61.8837 58.3215 61.8144 58.5267 62.5116 58.398C62.9829 55.3444 64.1827 52.2926 65.6956 49.6433L64.8926 53.7228L68.2881 48.7384L68.7477 50.0272L69.3304 50.017L71.842 45.3104C73.3181 45.5615 74.4804 45.3663 75.9016 44.9772C76.8006 44.7284 77.5027 44.0458 78.4815 44.189C78.7897 46.8211 78.1115 48.8729 77.0152 51.1797C76.5373 52.1789 74.8351 54.0009 76.3456 54.5574C76.7698 57.9888 76.6083 61.2556 76.5221 64.6668C76.5029 65.2354 76.2888 67.1626 76.9152 67.1517C77.4624 66.7778 77.4018 66.6477 77.4215 66.1083C77.7105 60.9595 76.5997 51.5804 79.6714 47.2428C79.9131 46.9035 80.4557 47.098 80.712 46.7584C81.2531 46.0349 81.2183 44.0393 82.2439 43.5259L81.435 46.4398L83.4471 45.6761L80.6953 54.1463C82.8498 58.2033 82.5611 62.536 83.8311 66.8415C83.9855 67.3343 84.0787 67.6678 84.7036 67.5694L82.8045 56.4409C82.7929 51.6035 83.4662 46.7686 86.7351 42.8793C87.7202 41.7109 88.8224 41.4148 89.8997 40.5218C91.3501 39.3016 92.9656 37.5248 94.2932 35.9425C96.0064 33.9164 97.6881 31.7596 98.8115 29.3357C99.3495 29.268 99.0696 29.9286 98.9873 30.2215C98.7135 31.2317 96.7536 36.6573 97.2149 37.203L97.6468 36.904C98.854 34.2746 99.6399 30.8804 101.127 28.421C100.999 27.753 101.394 27.8772 101.408 27.8332L101.379 27.8192Z" fill="#373230"/>
<path id="Vector_54" d="M101.366 27.8343C101.459 28.1678 101.169 28.2749 101.084 28.4221C101.133 28.6835 101.4 28.9703 101.677 28.9946L101.948 27.8241L101.366 27.8343Z" fill="#373230"/>
<path id="Vector_55" d="M100.825 29.5777L100.84 30.4517L100.986 30.4491C101.287 30.1816 101.503 30.003 101.408 29.5675L100.825 29.5777Z" fill="#373230"/>
<path id="Vector_56" d="M96.9156 38.3594L97.476 37.9125L97.0314 37.4831L96.8857 37.4856L96.901 38.3597L96.9156 38.3594Z" fill="#373230"/>
</g>
</svg>
